<svg xmlns="http://www.w3.org/2000/svg" class="w-10 h-10" fill="none" viewBox="0 0 24 25">
              <g clip-path="url(#clip0)">
                <path fill="#000000" d="M24 19.087c-.35.133-.735.132-1.084 0-.35-.133-.637-.389-.811-.72l-3.45-4.77-.5-.667-4.003 5.444c-.163.316-.436.563-.768.693-.331.13-.699.136-1.034.014l5.158-6.92-4.798-6.25c.345-.125.722-.126 1.068-.005.346.121.64.358.832.67l3.576 4.83 3.596-4.81c.164-.31.437-.55.767-.674.33-.123.693-.12 1.021.007l-1.862 2.47-2.522 3.284c-.07.062-.126.139-.164.224-.039.086-.059.179-.059.273 0 .093.02.186.059.272.038.085.094.162.164.225l4.804 6.412.01-.002zM.002 12.076L.422 10C1.576 5.898 6.28 4.19 9.516 6.73c1.895 1.489 2.368 3.597 2.275 5.973H1.116c-.173 4.242 2.889 6.805 6.804 5.495.635-.228 1.203-.61 1.653-1.112.451-.502.77-1.108.929-1.764.207-.665.548-.78 1.174-.588-.104.813-.392 1.591-.84 2.277-.448.685-1.046 1.26-1.749 1.68-1.16.635-2.492.887-3.804.72-1.313-.168-2.538-.746-3.502-1.652C.828 16.686.252 15.331.141 13.9c0-.235-.08-.454-.134-.665-.005-.387-.007-.773-.007-1.16h.002zm1.127-.287h9.654c-.06-3.075-2.001-5.257-4.59-5.277-2.882-.04-4.944 2.094-5.071 5.263l.007.014z"></path>
              </g>
              <defs>
                <clipPath id="clip0">
                  <path fill="#fff" d="M0 0H24V24H0z" transform="translate(0 .5)"></path>
                </clipPath>
              </defs>
            </svg>