<svg xmlns="http://www.w3.org/2000/svg" class="w-10 h-10" fill="none" viewBox="0 0 24 25">
              <g clip-path="url(#clip0)">
                <path fill="#509941" d="M11.998 24.5c-.32 0-.64-.084-.922-.247L8.14 22.516c-.438-.245-.224-.332-.08-.383.585-.203.703-.25 1.328-.604.065-.037.151-.023.218.017l2.256 1.34c.082.044.197.044.272 0l8.795-5.077c.082-.047.134-.14.134-.238V7.421c0-.099-.053-.192-.137-.242l-8.79-5.072c-.082-.047-.19-.047-.272 0L3.075 7.18c-.085.05-.139.145-.139.241v10.15c0 .097.054.19.14.235l2.408 1.392c1.307.654 2.108-.116 2.108-.89V8.288c0-.143.114-.254.256-.254h1.115c.14 0 .255.112.255.253v10.021c0 1.745-.95 2.745-2.604 2.745-.508 0-.909 0-2.026-.55L2.28 19.174c-.57-.329-.922-.945-.922-1.604V7.421c0-.659.353-1.275.922-1.603L11.075.736c.557-.315 1.296-.315 1.848 0l8.794 5.082c.57.33.924.944.924 1.603v10.15c0 .66-.354 1.273-.924 1.604l-8.794 5.078c-.28.163-.599.247-.925.247zM19.1 14.493c0-1.9-1.284-2.406-3.987-2.763-2.73-.36-3.009-.548-3.009-1.187 0-.528.235-1.233 2.258-1.233 1.807 0 2.473.39 2.747 1.607.024.115.13.2.247.2h1.141c.071 0 .138-.032.186-.082.048-.054.074-.123.067-.196-.177-2.098-1.57-3.076-4.388-3.076-2.508 0-4.004 1.058-4.004 2.833 0 1.925 1.488 2.457 3.895 2.695 2.88.282 3.103.703 3.103 1.27 0 .982-.789 1.401-2.642 1.401-2.327 0-2.839-.584-3.01-1.742-.02-.124-.127-.215-.254-.215h-1.137c-.14 0-.254.112-.254.253 0 1.482.806 3.248 4.655 3.248 2.788.001 4.386-1.096 4.386-3.013z"></path>
              </g>
              <defs>
                <clipPath id="clip0">
                  <path fill="#fff" d="M0 0H24V24H0z" transform="translate(0 .5)"></path>
                </clipPath>
              </defs>
            </svg>