<svg xmlns="http://www.w3.org/2000/svg" class="w-10 h-10" fill="none" viewBox="0 0 24 25">
              <g clip-path="url(#clip0)">
                <path fill="#7248B6" d="M16.634 17.004c.87-.075 1.543-.84 1.5-1.754-.047-.914-.796-1.648-1.709-1.648h-.061c-.453.016-.881.212-1.19.543-.31.332-.474.773-.458 1.226.03.48.226.87.494 1.153-1.048 2.038-2.621 3.536-5.005 4.795-1.603.838-3.296 1.154-4.944.93-1.378-.195-2.456-.81-3.116-1.799-.988-1.499-1.078-3.116-.255-4.734.6-1.17 1.499-2.023 2.099-2.443-.181-.502-.322-1.018-.42-1.543-4.437 3.178-3.985 7.522-2.637 9.575 1.004 1.498 3.057 2.456 5.304 2.456.6 0 1.23-.044 1.843-.194 3.897-.749 6.848-3.086 8.541-6.532l.014-.03zm5.348-3.746c-2.32-2.728-5.738-4.226-9.634-4.226h-.51c-.253-.554-.837-.899-1.498-.899h-.045c-.943 0-1.678.81-1.647 1.753.03.898.794 1.648 1.708 1.648h.074c.324-.012.638-.118.904-.304s.472-.445.595-.745h.555c2.309 0 4.495.674 6.488 1.992 1.527 1.005 2.622 2.323 3.237 3.897.538 1.288.509 2.547-.045 3.597-.855 1.647-2.294 2.517-4.196 2.517-1.199 0-2.367-.375-2.967-.644-.36.298-.96.793-1.394 1.093 1.318.598 2.652.943 3.94.943 2.922 0 5.094-1.647 5.919-3.236.898-1.798.824-4.824-1.47-7.416l-.014.03zM6.49 17.542c.03.9.793 1.648 1.708 1.648h.06c.225-.005.447-.055.653-.147.205-.092.39-.225.544-.39.153-.164.272-.358.35-.57.077-.211.112-.436.101-.66 0-.9-.779-1.648-1.693-1.648h-.06c-.06 0-.15 0-.226.03-1.243-2.099-1.768-4.348-1.572-6.773.12-1.828.72-3.417 1.797-4.735.9-1.124 2.593-1.68 3.747-1.708 3.236-.06 4.585 3.971 4.689 5.574l1.498.45c-.345-4.916-3.4-7.493-6.322-7.493-2.744 0-5.274 1.993-6.294 4.915-1.393 3.895-.479 7.642 1.23 10.64-.15.194-.24.538-.21.867z"></path>
              </g>
              <defs>
                <clipPath id="clip0">
                  <path fill="#fff" d="M0 0H24V24H0z" transform="translate(0 .5)"></path>
                </clipPath>
              </defs>
            </svg>